/* XPM */
static char *result[] = {
/* columns rows colors chars-per-pixel */
"64 64 50 1 ",
"  c #C64242",
". c #C64343",
"X c #C34F4F",
"o c #C45C5C",
"O c #E54C4C",
"+ c #E54D4D",
"@ c #E44E4E",
"# c #E54E4E",
"$ c #E44F4F",
"% c #EA4E4E",
"& c #EB4E4E",
"* c #EA4F4F",
"= c #EA5050",
"- c #EB5050",
"; c #E95F5F",
": c #E87373",
"> c #909090",
", c #BC9E9E",
"< c #ACACAC",
"1 c #BFAAAA",
"2 c gray70",
"3 c gray72",
"4 c gray73",
"5 c #BABCBC",
"6 c #E08F8F",
"7 c #E69292",
"8 c #E09B9B",
"9 c #E69F9F",
"0 c #E3BEBE",
"q c gray77",
"w c gray81",
"e c #D8D8D8",
"r c gainsboro",
"t c #DDDDDD",
"y c #DCDEDE",
"u c gray87",
"i c #E3D3D3",
"p c #DFE0E0",
"a c #E1E1E1",
"s c #E1E3E3",
"d c #E2E2E2",
"f c #E2E3E3",
"g c gray89",
"h c #E1E4E4",
"j c #E4E5E5",
"k c #F3F4F4",
"l c #F9F9F9",
"z c #FBFBFB",
"x c white",
"c c None",
/* pixels */
"cccccccccccccccccccccccccccccccccccccccccccccccccccccccccccccccc",
"ccccccccccccccccccccccccccccccxxxxcccccccccccccccccccccccccccccc",
"cccccccccccccccccccccccccccccckzlfcccccccccccccccccccccccccccccc",
"ccccccccccccccccccccccccccccccijp1cccccccccccccccccccccccccccccc",
"cccccccccccccccccccccccccccccc:76o$-cccccccccccccccccccccccccccc",
"cccccccccccccccccccccccccccccc%&O #===cccccccccccccccccccccccccc",
"cccccccccccccccccccccccccccccc==#.#======ccccccccccccccccccccccc",
"cccccccccccccccccccccccccccccc==#.#=======*ccccccccccccccccccccc",
"cccccccccccccccccccccccccccccc==#.#==========ccccccccccccccccccc",
"cccccccccccccccccccccccccccccc==#.#============ccccccccccccccccc",
"cccccccccccccccccccccccccccccc==#.#==============ccccccccccccccc",
"cccccccccccccccccccccccccccccc==#.#=================cccccccccccc",
"cccccccccccccccccccccccccccccc==#.#===================cccccccccc",
"cccccccccccccccccccccccccccccc==#.#=====================cccccccc",
"cccccccccccccccccccccccccccccc==#.#=====================cccccccc",
"cccccccccccccccccccccccccccccc==#.#=================cccccccccccc",
"cccccccccccccccccccccccccccccc==#.#==============ccccccccccccccc",
"cccccccccccccccccccccccccccccc==#.#===========cccccccccccccccccc",
"cccccccccccccccccccccccccccccc==#.#========ccccccccccccccccccccc",
"cccccccccccccccccccccccccccccc==#.#=====cccccccccccccccccccccccc",
"cccccccccccccccccccccccccccccc*=#.@==ccccccccccccccccccccccccccc",
"cccccccccccccccccccccccccccccc;*+Xcccccccccccccccccccccccccccccc",
"cccccccccccccccccccccccccccccc098,cccccccccccccccccccccccccccccc",
"ccccccccccccccccccccccccccccccshy5cccccccccccccccccccccccccccccc",
"ccccccccccccccccccccccccccccccaar4cccccccccccccccccccccccccccccc",
"ccccccccccccccccccccccccccccccaar4cccccccccccccccccccccccccccccc",
"ccccccccccccccccccccccccccccccaar4cccccccccccccccccccccccccccccc",
"ccccccccccccccccccccccccccccccaar4cccccccccccccccccccccccccccccc",
"ccccccccccccccccccccccccccccccaar4cccccccccccccccccccccccccccccc",
"ccccccccccccccccccccccccccccccaar4cccccccccccccccccccccccccccccc",
"ccccccccccccccccccccccccccccccaar4cccccccccccccccccccccccccccccc",
"ccccccccccccccccccccccccccccccaar4cccccccccccccccccccccccccccccc",
"ccccccccccccccccccccccccccccccaar4cccccccccccccccccccccccccccccc",
"ccccccccccccccccccccccccccccccaar4cccccccccccccccccccccccccccccc",
"ccccccccccccccccccccccccccccccaar4cccccccccccccccccccccccccccccc",
"ccccccccccccccccccccccccccccccaar4cccccccccccccccccccccccccccccc",
"ccccccccccccccccccccccccccccccaar4cccccccccccccccccccccccccccccc",
"ccccccccccccccccccccccccccccccaar4cccccccccccccccccccccccccccccc",
"ccccccccccccccccccccccccccccccaar4cccccccccccccccccccccccccccccc",
"ccccccccccccccccccccccccccccccaar4cccccccccccccccccccccccccccccc",
"ccccccccccccccccccccccccccccccaar4cccccccccccccccccccccccccccccc",
"ccccccccccccccccccccccccccccccaar4cccccccccccccccccccccccccccccc",
"ccccccccccccccccccccccccccccccaar4cccccccccccccccccccccccccccccc",
"ccccccccccccccccccccccccccccccaar4cccccccccccccccccccccccccccccc",
"ccccccccccccccccccccccccccccccaar4cccccccccccccccccccccccccccccc",
"ccccccccccccccccccccccccccccccuar3cccccccccccccccccccccccccccccc",
"ccccccccccccccccccccccccccccccedr2cccccccccccccccccccccccccccccc",
"ccccccccccccccccccccccccccccccegt2cccccccccccccccccccccccccccccc",
"cccccccccccccccccccccccccccccc<wq>cccccccccccccccccccccccccccccc",
"cccccccccccccccccccccccccccccccccccccccccccccccccccccccccccccccc",
"cccccccccccccccccccccccccccccccccccccccccccccccccccccccccccccccc",
"cccccccccccccccccccccccccccccccccccccccccccccccccccccccccccccccc",
"cccccccccccccccccccccccccccccccccccccccccccccccccccccccccccccccc",
"cccccccccccccccccccccccccccccccccccccccccccccccccccccccccccccccc",
"cccccccccccccccccccccccccccccccccccccccccccccccccccccccccccccccc",
"cccccccccccccccccccccccccccccccccccccccccccccccccccccccccccccccc",
"cccccccccccccccccccccccccccccccccccccccccccccccccccccccccccccccc",
"cccccccccccccccccccccccccccccccccccccccccccccccccccccccccccccccc",
"cccccccccccccccccccccccccccccccccccccccccccccccccccccccccccccccc",
"cccccccccccccccccccccccccccccccccccccccccccccccccccccccccccccccc",
"cccccccccccccccccccccccccccccccccccccccccccccccccccccccccccccccc",
"cccccccccccccccccccccccccccccccccccccccccccccccccccccccccccccccc",
"cccccccccccccccccccccccccccccccccccccccccccccccccccccccccccccccc",
"cccccccccccccccccccccccccccccccccccccccccccccccccccccccccccccccc"
};
