/* XPM */
static char *result[] = {
/* columns rows colors chars-per-pixel */
"64 64 105 2 ",
"   c black",
".  c #1D0F02",
"X  c #1D1003",
"o  c #181818",
"O  c #281604",
"+  c #2F1A04",
"@  c #301B04",
"#  c #3F3F3F",
"$  c #713F0A",
"%  c #73400A",
"&  c #7D450B",
"*  c #4E4E4E",
"=  c #5A4D40",
"-  c #535353",
";  c gray39",
":  c #727272",
">  c #80480C",
",  c #8B4D0B",
"<  c #93510B",
"1  c #AD5F0C",
"2  c #AE600D",
"3  c #B86711",
"4  c #BF6B12",
"5  c #C36D11",
"6  c #CD7313",
"7  c #C7741C",
"8  c #D37513",
"9  c #DB7B14",
"0  c #D47A1A",
"q  c #E37F15",
"w  c #CC7B26",
"e  c #E58015",
"r  c #EA8316",
"t  c #F08616",
"y  c #F48917",
"u  c #FF8E16",
"i  c #FF8F18",
"p  c #FF9119",
"a  c #CD802E",
"s  c #D2822D",
"d  c #CD8437",
"f  c #CE8639",
"g  c #FF9626",
"h  c #FF992C",
"j  c #ED9434",
"k  c #FF9B30",
"l  c #FFA13D",
"z  c #CE8941",
"x  c #CE904F",
"c  c #D89C5D",
"v  c #E59948",
"b  c #FEA342",
"n  c #FFA74A",
"m  c #FDA84E",
"M  c #FFAE57",
"N  c #CE9C67",
"B  c #CDA275",
"V  c #CDA67C",
"C  c #FFB362",
"Z  c #FFBE79",
"A  c #FFC07E",
"S  c #939393",
"D  c gray67",
"F  c gray75",
"G  c #D7B28A",
"H  c #DEB68C",
"J  c #CEB59A",
"K  c #F4BF87",
"L  c #CDBAA7",
"P  c #CEBEAE",
"I  c #FFC383",
"U  c #FFC78B",
"Y  c #EEC192",
"T  c #E6C29B",
"R  c #F5C592",
"E  c #FFC990",
"W  c #FACE9E",
"Q  c #D2C1AF",
"!  c #CFC6BC",
"~  c #E1C8AD",
"^  c #FFD2A2",
"/  c #FFD5A8",
"(  c #FFD8AF",
")  c #D6CCC1",
"_  c #DDD3C9",
"`  c #D4D4D3",
"'  c #DCDCDC",
"]  c #E1D2C1",
"[  c #E1D7CC",
"{  c #FFE2C3",
"}  c #FFE6CA",
"|  c #F6E6D5",
" . c #FFEBD5",
".. c #FFEFDE",
"X. c #DEDFE0",
"o. c #E5E5E5",
"O. c #ECEDED",
"+. c #FFF2E4",
"@. c #FFF5EB",
"#. c #EDEEF0",
"$. c #F2F2F2",
"%. c #FEFAF5",
"&. c #F6F7F8",
"*. c #FFFFFF",
"=. c None",
/* pixels */
"=.=.=.=.=.=.=.=.=.=.=.=.=.=.=.=.=.=.=.=.=.=.=.=.=.=.=.=.=.=.=.=.=.=.=.=.=.=.=.=.=.=.=.=.=.=.=.=.=.=.=.=.=.=.=.=.=.=.=.=.=.=.=.=.",
"=.=.=.=.=.=.=.=.=.=.=.=.=.=.=.=.=.=.=.=.=.=.=.=.=.=.=.=.=.=.=.=.=.=.=.=.=.=.=.=.=.=.=.=.=.=.=.=.=.=.=.=.=.=.=.=.=.=.=.=.=.=.=.=.",
"=.=.=.=.=.=.=.=.=.=.=.=.=.=.=.=.=.=.=.=.=.=.=.=.=.=.=.=.=.=.=.=.=.=.=.=.=.=.=.=.=.=.=.=.=.=.=.=.=.=.=.=.=.=.=.=.=.=.=.=.=.=.=.=.",
"=.=.=.=.=.=.=.=.=.=.=.=.=.=.=.=.=.=.=.=.=.=.=.=.=.=.=.=.=.=.=.=.=.=.=.=.=.=.=.=.=.=.=.=.=.=.=.=.=.=.=.=.=.=.=.=.=.=.=.=.=.=.=.=.",
"=.=.=.=.=.=.=.=.=.=.=.=.=.=.=.=.=.=.=.=.=.=.=.=.=.=.=.=.=.=.=.=.=.=.=.=.=.=.=.=.=.=.=.=.=.=.=.=.=.=.=.=.=.=.=.=.=.=.=.=.=.=.=.=.",
"=.=.=.=.=.=.=.=.=.=.=.=.=.=.=.=.=.=.=.=.=.=.=.=.=.=.=.=.=.=.=.=.=.=.=.=.=.=.=.=.=.=.=.=.=.=.=.=.=.=.=.=.=.=.=.=.=.=.=.=.=.=.=.=.",
"=.=.=.=.=.=.=.=.=.=.=.=.=.=.=.=.=.=.=.=.=.=.=.=.=.=.=.=.=.=.=.=.=.=.=.=.=.=.=.=.=.=.=.=.=.=.=.=.=.=.=.=.=.=.=.=.=.=.=.=.=.=.=.=.",
"=.=.=.=.=.=.=.=.=.=.=.=.=.=.=.=.=.=.=.=.=.=.=.=.=.=.=.=.=.=.=.=.=.=.=.=.=.=.=.=.=.=.=.=.=.=.=.=.=.=.=.=.=.=.=.=.=.=.=.=.=.=.=.=.",
"=.=.=.=.=.=.=.=.=.=.=.=.=.=.=.=.=.=.=.=.=.=.=.=.=.=.=.=.=.=.=.=.=.=.=.=.=.=.=.=.=.=.=.=.=.=.=.=.=.=.=.=.=.=.=.=.=.=.=.=.=.=.=.=.",
"=.=.=.=.=.=.=.=.=.=.=.=.=.=.=.=.=.=.=.=.=.=.=.=.=.=.=.=.=.=.=.=.=.=.=.=.=.=.=.=.=.=.=.=.=.=.=.=.=.=.=.=.=.=.=.=.=.=.=.=.=.=.=.=.",
"=.=.=.=.=.=.=.=.=.=.=.=.=.=.=.=.=.=.=.=.=.=.=.=.=.=.=.=.=.=.=.=.=.=.=.=.=.=.=.=.=.=.=.=.=.=.=.=.=.=.=.=.=.=.=.=.=.=.=.=.=.=.=.=.",
"=.=.=.=.=.=.=.=.=.=.=.=.=.=.=.=.=.=.=.=.=.=.=.=.=.=.=.=.=.=.=.=.=.=.=.=.=.=.=.=.=.=.=.=.=.=.=.=.=.=.=.=.=.=.=.=.=.=.=.=.=.=.=.=.",
"=.=.=.=.=.=.=.=.=.=.=.=.=.=.=.=.=.=.=.=.=.=.=.=.=.=.=.=.=.=.=.=.=.=.=.=.=.=.=.=.=.=.=.=.=.=.=.=.=.=.=.=.=.=.=.=.=.=.=.=.=.=.=.=.",
"=.=.=.=.=.=.=.=.=.=.=.=.=.=.=.=.=.=.=.=.=.=.=.=.=.=.=.=.=.=.=.=.=.=.=.=.=.=.=.=.=.=.=.=.=.=.=.=.=.=.=.=.=.=.=.=.=.=.=.=.=.=.=.=.",
"=.=.=.=.=.=.=.=.=.=.=.=.=.=.=.=.=.=.=.=.=.=.=.=.=.=.=.=.=.=.=.=.=.=.=.=.=.=.=.=.=.=.=.=.=.=.=.=.=.=.=.=.=.=.=.=.=.=.=.=.=.=.=.=.",
"=.=.=.=.=.=.=.=.=.=.=.=.=.=.i i =.=.=.=.=.=.=.=.=.=.=.=.=.=.=.=.=.=.=.=.=.=.=.=.=.=.=.=.=.=.=.=.i i =.=.=.=.=.=.=.=.=.=.=.=.=.=.",
"=.=.=.=.=.=.=.=.=.=.=.=.=.=.i i i i i i =.=.=.=.=.=.=.=.=.=.=.=.=.=.=.=.=.=.=.=.=.=.=.=.i i i i i i =.=.=.=.=.=.=.=.=.=.=.=.=.=.",
"=.=.=.=.=.=.=.=.=.=.=.=.=.=.=.i i i i i i i i =.=.=.=.=.=.=.=.=.=.=.=.=.=.=.=.=.=.i p i i i i i i =.=.=.=.=.=.=.=.=.=.=.=.=.=.=.",
"=.=.=.=.=.=.=.=.=.=.=.=.=.=.=.i i i i i i i i i i i =.=.=.=.=.=.=.=.=.=.=.=.p i i i i i i i i i i =.=.=.=.=.=.=.=.=.=.=.=.=.=.=.",
"=.=.=.=.=.=.=.=.=.=.=.=.=.=.=.i i i i i p i i i i i i i i i i i i i i i i i i i i i i i i i i i i =.=.=.=.=.=.=.=.=.=.=.=.=.=.=.",
"=.=.=.=.=.=.=.=.=.=.=.=.=.=.=.i i i i i i i i i i i i i i i i i i i i i i i i i i i i i i i i i i =.=.=.=.=.=.=.=.=.=.=.=.=.=.=.",
"=.=.=.=.=.=.=.=.=.=.=.=.=.=.=.=.i i i i i i i i i i i i i i i i i i i i i i i i i i i i i i i i =.=.=.=.=.=.=.=.=.=.=.=.=.=.=.=.",
"=.=.=.=.=.=.=.=.=.=.=.=.=.=.=.=.i i i i i i i i i i i i i i i i i i i i i i i i i i i i i i i i =.=.=.=.=.=.=.=.=.=.=.=.=.=.=.=.",
"=.=.=.=.=.=.=.=.=.=.=.=.=.=.=.=.i i i i i i i i i i i i i i i i i i i i i i i i i i i i i i i i =.=.=.=.=.=.=.=.=.=.=.=.=.=.=.=.",
"=.=.=.=.=.=.=.=.=.=.=.=.=.=.=.=.=.i i i i i i i i i i i i i i i i i i i i i i i i i i i i i i =.=.=.=.=.=.=.=.+...=.=.=.=.=.=.=.",
"=.=.=.=.=.=.=.=.=.=.=.=.=.=.=.=.=.i i i i i i i i i p p p i i i i i i p p p i i i i i i i i i =.=.=.=.=.=.=. .%.%.=.=.=.=.=.=.=.",
"=.=.=.=.=.=.=.=.=.=.=.=.=.=.=.=.=.i i i i i i i i p 9 , 9 i i i i i p 9 , 9 p i i i i i i i r =.=.=.=.=.=.=.%.*.*.@.=.=.=.=.=.=.",
"=.=.=.=.=.=.=.=.=.=.=.=.=.=.=.=.=.i i i i i i i i i %   % i i i i i i $   $ i i i i i i i i q =.=.=.=.=.=. .*.*.*.%.=.=.=.=.=.=.",
"=.=.=.=.=.=.=.=.=.=.=.=.=.=.=.=.i i i i i i i i p e +   + r i i i p r +   + r p p i i i i i r 6 =.=.=.=.=.@.*.*.*.*.+.=.=.=.=.=.",
"=.=.=.=.=.=.=.=.=.=.=.=.=.=.=.=.i i i i i i i i p e X   X e p i i p e X   X q p i i i i i p y 6 =.=.=.=.=.U { +.+.{ I =.=.=.=.=.",
"=.=.=.=.=.=.=.=.=.=.=.=.=.=.=.i i i i p i i i i p q .   . q i i i i q .   . q p i i i i i i i 9 6 =.=.=.=.i g h k g i =.=.=.=.=.",
"=.=.=.=.=.=.=.=.=.=.=.=.=.=.=.i i i i i i i i i p e X   X e p i i p e X   X q p i i i i i i p 9 6 =.=.=.i i i i i i i =.=.=.=.=.",
"=.=.=.=.=.=.=.=.=.=.=.=.=.=.=.i i i i i i i i i p e @   + r p p i p r +   + r p i i i i i i i q 6 =.=.=.i i i i p i i =.=.=.=.=.",
"=.=.=.=.=.=.=.=.=.=.=.=.=.=.=.i i i i i i i i i p i %   % p p p p p p %   $ i i i i i i i i i q 6 =.=.i i i i i i i i =.=.=.=.=.",
"=.=.=.=.=.=.=.=.=.=.=.=.=.=.=.i i i i i i i i i p p 8 & 6 3 & > & > 3 8 & 6 i i i i i i i i i q 6 e p i i i i i i i i =.=.=.=.=.",
"=.=.=.=.=.=.=.=.=.=.=.=.=.=.=.i i i u u u u u i i i i t e O         O e t u i i u u u i u u i q 6 r p i i i i i i i =.=.=.=.=.=.",
"=.=.=.=.=.=.=.=.=.=.=.=.=.=.=.i i i l Z U U A C l h g p 9 X         . q p h h b C A U U K k i q 6 e p i i i i i i i =.=.=.=.=.=.",
"=.=.=.=.=.=.=.=.=.=.=.=.=.=.=.i u b  .*.*.*.*.%.@. .{ ( Y =         = R ( {  .@.%.*.*.*.*.} b 8 6 r i i i i i i i =.=.=.=.=.=.=.",
"=.=.=.=.=.=.=.=.=.=.=.=.=.=.=.i p U *.*.*.*.*.*.*.*.*.*.*.` - o o - ` *.*.*.*.*.*.*.*.*.*.*.K 6 6 r i i i i i =.=.=.=.=.=.=.=.=.",
"=.=.=.=.=.=.=.=.=.=.=.=.=.=.=.i p / *.*.*.*.*.*.*.*.*.*.$.&.X.P ) ' *.O.*.*.*.*.*.*.*.*.*.*.T 6 8 y i i i =.=.=.=.=.=.=.=.=.=.=.",
"=.=.=.=.=.=.=.=.=.=.=.=.=.=.=.i p ^ *.*.*.*.*.*.*.*.*.O.; ` *.*.&.*.` ; O.*.*.*.*.*.*.*.*.*.G 6 8 =.=.=.=.=.=.=.=.=.=.=.=.=.=.=.",
"=.=.=.=.=.=.=.=.=.=.=.=.=.=.=.i i I *.*.*.*.*.*.*.*.*.&.: * D ` ` D * : &.*.*.*.*.*.*.*.*.o.N 6 6 =.=.=.=.=.=.=.=.=.=.=.=.=.=.=.",
"=.=.=.=.=.=.=.=.=.=.=.=.=.=.=.=.i n @.*.*.*.*.*.*.*.*.*.$.S - # # - S #.*.*.*.*.*.*.*.*.&.) d 8 =.=.=.=.=.=.=.=.=.=.=.=.=.=.=.=.",
"=.=.=.=.=.=.=.=.=.=.=.=.=.=.=.=.i p ^ *.*.*.*.*.*.*.*.*.*.*.$.o.o.$.*.*.*.*.*.*.*.*.*.&.' V 6 6 =.=.=.=.=.=.=.=.=.=.=.=.=.=.=.=.",
"=.=.=.=.=.=.=.=.=.=.=.=.=.=.=.=.=.i l  .*.*.*.*.*.*.*.*.*.*.*.*.*.*.*.*.*.*.*.*.*.*.&.X.L d 6 =.=.=.=.=.=.=.=.=.=.=.=.=.=.=.=.=.",
"=.=.=.=.=.=.=.=.=.=.=.=.=.=.=.=.=.=.r M ..*.*.*.*.*.*.*.*.*.*.*.*.*.*.*.*.*.*.*.*.&.X.P f 5 =.=.=.=.=.=.=.=.=.=.=.=.=.=.=.=.=.=.",
"=.=.=.=.=.=.=.=.=.=.=.=.=.=.=.=.=.=., e m } *.*.*.*.*.*.*.*.*.*.*.*.*.*.*.*.*.*.O.` J f 6 & =.=.=.=.=.=.=.=.=.=.=.=.=.=.=.=.=.=.",
"=.=.=.=.=.=.=.=.=.=.=.=.=.=.=.=.=.=.=.& 8 j W @.*.*.*.*.*.*.*.*.*.*.*.*.*.&.#.' ! V w 5 % =.=.=.=.=.=.=.=.=.=.=.=.=.=.=.=.=.=.=.",
"=.=.=.=.=.=.=.=.=.=.=.=.=.=.=.=.=.=.=.=.=.2 0 v Y | &.*.*.*.*.*.*.*.&.O.o.` P B f 6 1 =.=.=.=.=.=.=.=.=.=.=.=.=.=.=.=.=.=.=.=.=.",
"=.=.=.=.=.=.=.=.=.=.=.=.=.=.=.=.=.=.=.=.=.=.% 2 6 s c H ~ ! [ [ _ ! Q J B x w 5 2 % =.=.=.=.=.=.=.=.=.=.=.=.=.=.=.=.=.=.=.=.=.=.",
"=.=.=.=.=.=.=.=.=.=.=.=.=.=.=.=.=.=.=.=.=.=.=.=.=.< 1 5 7 w w w w w w 7 5 2 < =.=.=.=.=.=.=.=.=.=.=.=.=.=.=.=.=.=.=.=.=.=.=.=.=.",
"=.=.=.=.=.=.=.=.=.=.=.=.=.=.=.=.=.=.=.=.=.=.=.=.=.=.=.=.=.& , , , , & =.=.=.=.=.=.=.=.=.=.=.=.=.=.=.=.=.=.=.=.=.=.=.=.=.=.=.=.=.",
"=.=.=.=.=.=.=.=.=.=.=.=.=.=.=.=.=.=.=.=.=.=.=.=.=.=.=.=.=.=.=.=.=.=.=.=.=.=.=.=.=.=.=.=.=.=.=.=.=.=.=.=.=.=.=.=.=.=.=.=.=.=.=.=.",
"=.=.=.=.=.=.=.=.=.=.=.=.=.=.=.=.=.=.=.=.=.=.=.=.=.=.=.=.=.=.=.=.=.=.=.=.=.=.=.=.=.=.=.=.=.=.=.=.=.=.=.=.=.=.=.=.=.=.=.=.=.=.=.=.",
"=.=.=.=.=.=.=.=.=.=.=.=.=.=.=.=.=.=.=.=.=.=.=.=.=.=.=.=.=.=.=.=.=.=.=.=.=.=.=.=.=.=.=.=.=.=.=.=.=.=.=.=.=.=.=.=.=.=.=.=.=.=.=.=.",
"=.=.=.=.=.=.=.=.=.=.=.=.=.=.=.=.=.=.=.=.=.=.=.=.=.=.=.=.=.=.=.=.=.=.=.=.=.=.=.=.=.=.=.=.=.=.=.=.=.=.=.=.=.=.=.=.=.=.=.=.=.=.=.=.",
"=.=.=.=.=.=.=.=.=.=.=.=.=.=.=.=.=.=.=.=.=.=.=.=.=.=.=.=.=.=.=.=.=.=.=.=.=.=.=.=.=.=.=.=.=.=.=.=.=.=.=.=.=.=.=.=.=.=.=.=.=.=.=.=.",
"=.=.=.=.=.=.=.=.=.=.=.=.=.=.=.=.=.=.=.=.=.=.=.=.=.=.=.=.=.=.=.=.=.=.=.=.=.=.=.=.=.=.=.=.=.=.=.=.=.=.=.=.=.=.=.=.=.=.=.=.=.=.=.=.",
"=.=.=.=.=.=.=.=.=.=.=.=.=.=.=.=.=.=.=.=.=.=.=.=.=.=.=.=.=.=.=.=.=.=.=.=.=.=.=.=.=.=.=.=.=.=.=.=.=.=.=.=.=.=.=.=.=.=.=.=.=.=.=.=.",
"=.=.=.=.=.=.=.=.=.=.=.=.=.=.=.=.=.=.=.=.=.=.=.=.=.=.=.=.=.=.=.=.=.=.=.=.=.=.=.=.=.=.=.=.=.=.=.=.=.=.=.=.=.=.=.=.=.=.=.=.=.=.=.=.",
"=.=.=.=.=.=.=.=.=.=.=.=.=.=.=.=.=.=.=.=.=.=.=.=.=.=.=.=.=.=.=.=.=.=.=.=.=.=.=.=.=.=.=.=.=.=.=.=.=.=.=.=.=.=.=.=.=.=.=.=.=.=.=.=.",
"=.=.=.=.=.=.=.=.=.=.=.=.=.=.=.=.=.=.=.=.=.=.=.=.=.=.=.=.=.=.=.=.=.=.=.=.=.=.=.=.=.=.=.=.=.=.=.=.=.=.=.=.=.=.=.=.=.=.=.=.=.=.=.=.",
"=.=.=.=.=.=.=.=.=.=.=.=.=.=.=.=.=.=.=.=.=.=.=.=.=.=.=.=.=.=.=.=.=.=.=.=.=.=.=.=.=.=.=.=.=.=.=.=.=.=.=.=.=.=.=.=.=.=.=.=.=.=.=.=.",
"=.=.=.=.=.=.=.=.=.=.=.=.=.=.=.=.=.=.=.=.=.=.=.=.=.=.=.=.=.=.=.=.=.=.=.=.=.=.=.=.=.=.=.=.=.=.=.=.=.=.=.=.=.=.=.=.=.=.=.=.=.=.=.=."
};
