/* XPM */
static char *result[] = {
/* columns rows colors chars-per-pixel */
"128 96 80 1 ",
"  c #569B4F",
". c #579C4E",
"X c #579D4E",
"o c #579C4F",
"O c #579D4F",
"+ c #558F5F",
"@ c #569755",
"# c #569557",
"$ c #569656",
"% c #569756",
"& c #579756",
"* c #569657",
"= c #579657",
"- c #579757",
"; c #569A50",
": c #569B50",
"> c #579B50",
", c #569A51",
"< c #579A51",
"1 c #579B51",
"2 c #569952",
"3 c #569853",
"4 c #569953",
"5 c #579953",
"6 c #579A52",
"7 c #579B52",
"8 c #579A53",
"9 c #579C50",
"0 c #579C51",
"q c #569854",
"w c #579854",
"e c #579954",
"r c #569855",
"t c #579855",
"y c #579955",
"u c #579856",
"i c #55935A",
"p c #55925B",
"a c #55935B",
"s c #56935A",
"d c #56935B",
"f c #569458",
"g c #569558",
"h c #569459",
"j c #569559",
"k c #569658",
"l c #579658",
"z c #56945A",
"x c #56955A",
"c c #56945B",
"v c #55915C",
"b c #55905D",
"n c #55915D",
"m c #56915D",
"M c #55925C",
"N c #56925C",
"B c #56935C",
"V c #56925D",
"C c #55905E",
"Z c #55915E",
"A c #55905F",
"S c #56915E",
"D c #56905F",
"F c #56915F",
"G c #558D61",
"H c #558E60",
"J c #558F60",
"K c #558E61",
"L c #558F61",
"P c #568F61",
"I c #558D62",
"U c #558C63",
"Y c #558D63",
"T c #558E62",
"R c #568E62",
"E c #568F62",
"W c #568E63",
"Q c #558C64",
"! c #558D64",
"~ c #569060",
/* pixels */
"XXXXXXXXXXXXXXXXXXXXXXXXXXXXXXXXXXXXXXXXXXXXXXXXXXXXXXXXXXXXXXXXXXXXXXXXXXXXXXXXXXXXXXXXXXXXXXXXXXXXXXXXXXXXXXXXXXXXXXXXXXXXXXXX",
"OXOXOXOXOXOXOXOXOXOXOXOXOXOXOXOXOXOXOXOXOXOXOXOXOXOXOXOXOXOXOXOXOXOXOXOXOXOXOXOXOXOXOXOXOXOXOXOXOXOXOXOXOXOXOXOXOXOXOXOXOXOXOXOX",
".O.O.O.O.O.O.O.O.O.O.O.O.O.O.O.O.O.O.O.O.O.O.O.O.O.O.O.O.O.O.O.O.O.O.O.O.O.O.O.O.O.O.O.O.O.O.O.O.O.O.O.O.O.O.O.O.O.O.O.O.O.O.O.O",
"OoOoOoOoOoOoOoOoOoOoOoOoOoOoOoOoOoOoOoOoOoOoOoOoOoOoOoOoOoOoOoOoOoOoOoOoOoOoOoOoOoOoOoOoOoOoOoOoOoOoOoOoOoOoOoOoOoOoOoOoOoOoOoOo",
"oooooooooooooooooooooooooooooooooooooooooooooooooooooooooooooooooooooooooooooooooooooooooooooooooooooooooooooooooooooooooooooooo",
"9o9o9o9o9o9o9o9o9o9o9o9o9o9o9o9o9o9o9o9o9o9o9o9o9o9o9o9o9o9o9o9o9o9o9o9o9o9o9o9o9o9o9o9o9o9o9o9o9o9o9o9o9o9o9o9o9o9o9o9o9o9o9o9o",
" 9 9 9 9 9 9 9 9 9 9 9 9 9 9 9 9 9 9 9 9 9 9 9 9 9 9 9 9 9 9 9 9 9 9 9 9 9 9 9 9 9 9 9 9 9 9 9 9 9 9 9 9 9 9 9 9 9 9 9 9 9 9 9 9",
"99999999999999999999999999999999999999999999999999999999999999999999999999999999999999999999999999999999999999999999999999999999",
":9:9:9:9:9:9:9:9:9:9:9:9:9:9:9:9:9:9:9:9:9:9:9:9:9:9:9:9:9:9:9:9:9:9:9:9:9:9:9:9:9:9:9:9:9:9:9:9:9:9:9:9:9:9:9:9:9:9:9:9:9:9:9:9",
"0>0>0>0>0>0>0>0>0>0>0>0>0>0>0>0>0>0>0>0>0>0>0>0>0>0>0>0>0>0>0>0>0>0>0>0>0>0>0>0>0>0>0>0>0>0>0>0>0>0>0>0>0>0>0>0>0>0>0>0>0>0>0>0>",
":1:1:1:1:1:1:1:1:1:1:1:1:1:1:1:1:1:1:1:1:1:1:1:1:1:1:1:1:1:1:1:1:1:1:1:1:1:1:1:1:1:1:1:1:1:1:1:1:1:1:1:1:1:1:1:1:1:1:1:1:1:1:1:1",
"11111111111111111111111111111111111111111111111111111111111111111111111111111111111111111111111111111111111111111111111111111111",
";1;1;1;1;1;1;1;1;1;1;1;1;1;1;1;1;1;1;1;1;1;1;1;1;1;1;1;1;1;1;1;1;1;1;1;1;1;1;1;1;1;1;1;1;1;1;1;1;1;1;1;1;1;1;1;1;1;1;1;1;1;1;1;1",
"1<1<1<1<1<1<1<1<1<1<1<1<1<1<1<1<1<1<1<1<1<1<1<1<1<1<1<1<1<1<1<1<1<1<1<1<1<1<1<1<1<1<1<1<1<1<1<1<1<1<1<1<1<1<1<1<1<1<1<1<1<1<1<1<",
",1,1,1,1,1,1,1,1,1,1,1,1,1,1,1,1,1,1,1,1,1,1,1,1,1,1,1,1,1,1,1,1,1,1,1,1,1,1,1,1,1,1,1,1,1,1,1,1,1,1,1,1,1,1,1,1,1,1,1,1,1,1,1,1",
"7<7<7<7<7<7<7<7<7<7<7<7<7<7<7<7<7<7<7<7<7<7<7<7<7<7<7<7<7<7<7<7<7<7<7<7<7<7<7<7<7<7<7<7<7<7<7<7<7<7<7<7<7<7<7<7<7<7<7<7<7<7<7<7<",
",6,6,6,6,6,6,6,6,6,6,6,6,6,6,6,6,6,6,6,6,6,6,6,6,6,6,6,6,6,6,6,6,6,6,6,6,6,6,6,6,6,6,6,6,6,6,6,6,6,6,6,6,6,6,6,6,6,6,6,6,6,6,6,6",
"66666666666666666666666666666666666666666666666666666666666666666666666666666666666666666666666666666666666666666666666666666666",
"26262626262626262626262626262626262626262626262626262626262626262626262626262626262626262626262626262626262626262626262626262626",
"82828282828282828282828282828282828282828282828282828282828282828282828282828282828282828282828282828282828282828282828282828282",
"25252525252525252525252525252525252525252525252525252525252525252525252525252525252525252525252525252525252525252525252525252525",
"84848484848484848484848484848484848484848484848484848484848484848484848484848484848484848484848484848484848484848484848484848484",
"45454545454545454545454545454545454545454545454545454545454545454545454545454545454545454545454545454545454545454545454545454545",
"e4e4e4e4e4e4e4e4e4e4e4e4e4e4e4e4e4e4e4e4e4e4e4e4e4e4e4e4e4e4e4e4e4e4e4e4e4e4e4e4e4e4e4e4e4e4e4e4e4e4e4e4e4e4e4e4e4e4e4e4e4e4e4e4",
"3e3e3e3e3e3e3e3e3e3e3e3e3e3e3e3e3e3e3e3e3e3e3e3e3e3e3e3e3e3e3e3e3e3e3e3e3e3e3e3e3e3e3e3e3e3e3e3e3e3e3e3e3e3e3e3e3e3e3e3e3e3e3e3e",
"eqeqeqeqeqeqeqeqeqeqeqeqeqeqeqeqeqeqeqeqeqeqeqeqeqeqeqeqeqeqeqeqeqeqeqeqeqeqeqeqeqeqeqeqeqeqeqeqeqeqeqeqeqeqeqeqeqeqeqeqeqeqeqeq",
"qwqwqwqwqwqwqwqwqwqwqwqwqwqwqwqwqwqwqwqwqwqwqwqwqwqwqwqwqwqwqwqwqwqwqwqwqwqwqwqwqwqwqwqwqwqwqwqwqwqwqwqwqwqwqwqwqwqwqwqwqwqwqwqw",
"yqyqyqyqyqyqyqyqyqyqyqyqyqyqyqyqyqyqyqyqyqyqyqyqyqyqyqyqyqyqyqyqyqyqyqyqyqyqyqyqyqyqyqyqyqyqyqyqyqyqyqyqyqyqyqyqyqyqyqyqyqyqyqyq",
"qtqtqtqtqtqtqtqtqtqtqtqtqtqtqtqtqtqtqtqtqtqtqtqtqtqtqtqtqtqtqtqtqtqtqtqtqtqtqtqtqtqtqtqtqtqtqtqtqtqtqtqtqtqtqtqtqtqtqtqtqtqtqtqt",
"trtrtrtrtrtrtrtrtrtrtrtrtrtrtrtrtrtrtrtrtrtrtrtrtrtrtrtrtrtrtrtrtrtrtrtrtrtrtrtrtrtrtrtrtrtrtrtrtrtrtrtrtrtrtrtrtrtrtrtrtrtrtrtr",
"@r@r@r@r@r@r@r@r@r@r@r@r@r@r@r@r@r@r@r@r@r@r@r@r@r@r@r@r@r@r@r@r@r@r@r@r@r@r@r@r@r@r@r@r@r@r@r@r@r@r@r@r@r@r@r@r@r@r@r@r@r@r@r@r",
"u@u@u@u@u@u@u@u@u@u@u@u@u@u@u@u@u@u@u@u@u@u@u@u@u@u@u@u@u@u@u@u@u@u@u@u@u@u@u@u@u@u@u@u@u@u@u@u@u@u@u@u@u@u@u@u@u@u@u@u@u@u@u@u@",
"@%@%@%@%@%@%@%@%@%@%@%@%@%@%@%@%@%@%@%@%@%@%@%@%@%@%@%@%@%@%@%@%@%@%@%@%@%@%@%@%@%@%@%@%@%@%@%@%@%@%@%@%@%@%@%@%@%@%@%@%@%@%@%@%",
"&%&%&%&%&%&%&%&%&%&%&%&%&%&%&%&%&%&%&%&%&%&%&%&%&%&%&%&%&%&%&%&%&%&%&%&%&%&%&%&%&%&%&%&%&%&%&%&%&%&%&%&%&%&%&%&%&%&%&%&%&%&%&%&%",
"%%%%%%%%%%%%%%%%%%%%%%%%%%%%%%%%%%%%%%%%%%%%%%%%%%%%%%%%%%%%%%%%%%%%%%%%%%%%%%%%%%%%%%%%%%%%%%%%%%%%%%%%%%%%%%%%%%%%%%%%%%%%%%%%",
"-%-%-%-%-%-%-%-%-%-%-%-%-%-%-%-%-%-%-%-%-%-%-%-%-%-%-%-%-%-%-%-%-%-%-%-%-%-%-%-%-%-%-%-%-%-%-%-%-%-%-%-%-%-%-%-%-%-%-%-%-%-%-%-%",
"$%$%$%$%$%$%$%$%$%$%$%$%$%$%$%$%$%$%$%$%$%$%$%$%$%$%$%$%$%$%$%$%$%$%$%$%$%$%$%$%$%$%$%$%$%$%$%$%$%$%$%$%$%$%$%$%$%$%$%$%$%$%$%$%",
"-$-$-$-$-$-$-$-$-$-$-$-$-$-$-$-$-$-$-$-$-$-$-$-$-$-$-$-$-$-$-$-$-$-$-$-$-$-$-$-$-$-$-$-$-$-$-$-$-$-$-$-$-$-$-$-$-$-$-$-$-$-$-$-$",
"$*$*$*$*$*$*$*$*$*$*$*$*$*$*$*$*$*$*$*$*$*$*$*$*$*$*$*$*$*$*$*$*$*$*$*$*$*$*$*$*$*$*$*$*$*$*$*$*$*$*$*$*$*$*$*$*$*$*$*$*$*$*$*$*",
"=*=*=*=*=*=*=*=*=*=*=*=*=*=*=*=*=*=*=*=*=*=*=*=*=*=*=*=*=*=*=*=*=*=*=*=*=*=*=*=*=*=*=*=*=*=*=*=*=*=*=*=*=*=*=*=*=*=*=*=*=*=*=*=*",
"#*#*#*#*#*#*#*#*#*#*#*#*#*#*#*#*#*#*#*#*#*#*#*#*#*#*#*#*#*#*#*#*#*#*#*#*#*#*#*#*#*#*#*#*#*#*#*#*#*#*#*#*#*#*#*#*#*#*#*#*#*#*#*#*",
"l*l*l*l*l*l*l*l*l*l*l*l*l*l*l*l*l*l*l*l*l*l*l*l*l*l*l*l*l*l*l*l*l*l*l*l*l*l*l*l*l*l*l*l*l*l*l*l*l*l*l*l*l*l*l*l*l*l*l*l*l*l*l*l*",
"#k#k#k#k#k#k#k#k#k#k#k#k#k#k#k#k#k#k#k#k#k#k#k#k#k#k#k#k#k#k#k#k#k#k#k#k#k#k#k#k#k#k#k#k#k#k#k#k#k#k#k#k#k#k#k#k#k#k#k#k#k#k#k#k",
"kgkgkgkgkgkgkgkgkgkgkgkgkgkgkgkgkgkgkgkgkgkgkgkgkgkgkgkgkgkgkgkgkgkgkgkgkgkgkgkgkgkgkgkgkgkgkgkgkgkgkgkgkgkgkgkgkgkgkgkgkgkgkgkg",
"gggggggggggggggggggggggggggggggggggggggggggggggggggggggggggggggggggggggggggggggggggggggggggggggggggggggggggggggggggggggggggggggg",
"jgjgjgjgjgjgjgjgjgjgjgjgjgjgjgjgjgjgjgjgjgjgjgjgjgjgjgjgjgjgjgjgjgjgjgjgjgjgjgjgjgjgjgjgjgjgjgjgjgjgjgjgjgjgjgjgjgjgjgjgjgjgjgjg",
"fjfjfjfjfjfjfjfjfjfjfjfjfjfjfjfjfjfjfjfjfjfjfjfjfjfjfjfjfjfjfjfjfjfjfjfjfjfjfjfjfjfjfjfjfjfjfjfjfjfjfjfjfjfjfjfjfjfjfjfjfjfjfjfj",
"jhjhjhjhjhjhjhjhjhjhjhjhjhjhjhjhjhjhjhjhjhjhjhjhjhjhjhjhjhjhjhjhjhjhjhjhjhjhjhjhjhjhjhjhjhjhjhjhjhjhjhjhjhjhjhjhjhjhjhjhjhjhjhjh",
"hjhjhjhjhjhjhjhjhjhjhjhjhjhjhjhjhjhjhjhjhjhjhjhjhjhjhjhjhjhjhjhjhjhjhjhjhjhjhjhjhjhjhjhjhjhjhjhjhjhjhjhjhjhjhjhjhjhjhjhjhjhjhjhj",
"xhxhxhxhxhxhxhxhxhxhxhxhxhxhxhxhxhxhxhxhxhxhxhxhxhxhxhxhxhxhxhxhxhxhxhxhxhxhxhxhxhxhxhxhxhxhxhxhxhxhxhxhxhxhxhxhxhxhxhxhxhxhxhxh",
"hzhzhzhzhzhzhzhzhzhzhzhzhzhzhzhzhzhzhzhzhzhzhzhzhzhzhzhzhzhzhzhzhzhzhzhzhzhzhzhzhzhzhzhzhzhzhzhzhzhzhzhzhzhzhzhzhzhzhzhzhzhzhzhz",
"zzzzzzzzzzzzzzzzzzzzzzzzzzzzzzzzzzzzzzzzzzzzzzzzzzzzzzzzzzzzzzzzzzzzzzzzzzzzzzzzzzzzzzzzzzzzzzzzzzzzzzzzzzzzzzzzzzzzzzzzzzzzzzzz",
"szszszszszszszszszszszszszszszszszszszszszszszszszszszszszszszszszszszszszszszszszszszszszszszszszszszszszszszszszszszszszszszsz",
"cscscscscscscscscscscscscscscscscscscscscscscscscscscscscscscscscscscscscscscscscscscscscscscscscscscscscscscscscscscscscscscscs",
"idididididididididididididididididididididididididididididididididididididididididididididididididididididididididididididididid",
"cdcdcdcdcdcdcdcdcdcdcdcdcdcdcdcdcdcdcdcdcdcdcdcdcdcdcdcdcdcdcdcdcdcdcdcdcdcdcdcdcdcdcdcdcdcdcdcdcdcdcdcdcdcdcdcdcdcdcdcdcdcdcdcd",
"adadadadadadadadadadadadadadadadadadadadadadadadadadadadadadadadadadadadadadadadadadadadadadadadadadadadadadadadadadadadadadadad",
"BdBdBdBdBdBdBdBdBdBdBdBdBdBdBdBdBdBdBdBdBdBdBdBdBdBdBdBdBdBdBdBdBdBdBdBdBdBdBdBdBdBdBdBdBdBdBdBdBdBdBdBdBdBdBdBdBdBdBdBdBdBdBdBd",
"pBpBpBpBpBpBpBpBpBpBpBpBpBpBpBpBpBpBpBpBpBpBpBpBpBpBpBpBpBpBpBpBpBpBpBpBpBpBpBpBpBpBpBpBpBpBpBpBpBpBpBpBpBpBpBpBpBpBpBpBpBpBpBpB",
"BNBNBNBNBNBNBNBNBNBNBNBNBNBNBNBNBNBNBNBNBNBNBNBNBNBNBNBNBNBNBNBNBNBNBNBNBNBNBNBNBNBNBNBNBNBNBNBNBNBNBNBNBNBNBNBNBNBNBNBNBNBNBNBN",
"pNpNpNpNpNpNpNpNpNpNpNpNpNpNpNpNpNpNpNpNpNpNpNpNpNpNpNpNpNpNpNpNpNpNpNpNpNpNpNpNpNpNpNpNpNpNpNpNpNpNpNpNpNpNpNpNpNpNpNpNpNpNpNpN",
"NNNNNNNNNNNNNNNNNNNNNNNNNNNNNNNNNNNNNNNNNNNNNNNNNNNNNNNNNNNNNNNNNNNNNNNNNNNNNNNNNNNNNNNNNNNNNNNNNNNNNNNNNNNNNNNNNNNNNNNNNNNNNNNN",
"MNMNMNMNMNMNMNMNMNMNMNMNMNMNMNMNMNMNMNMNMNMNMNMNMNMNMNMNMNMNMNMNMNMNMNMNMNMNMNMNMNMNMNMNMNMNMNMNMNMNMNMNMNMNMNMNMNMNMNMNMNMNMNMN",
"VNVNVNVNVNVNVNVNVNVNVNVNVNVNVNVNVNVNVNVNVNVNVNVNVNVNVNVNVNVNVNVNVNVNVNVNVNVNVNVNVNVNVNVNVNVNVNVNVNVNVNVNVNVNVNVNVNVNVNVNVNVNVNVN",
"vVvVvVvVvVvVvVvVvVvVvVvVvVvVvVvVvVvVvVvVvVvVvVvVvVvVvVvVvVvVvVvVvVvVvVvVvVvVvVvVvVvVvVvVvVvVvVvVvVvVvVvVvVvVvVvVvVvVvVvVvVvVvVvV",
"VmVmVmVmVmVmVmVmVmVmVmVmVmVmVmVmVmVmVmVmVmVmVmVmVmVmVmVmVmVmVmVmVmVmVmVmVmVmVmVmVmVmVmVmVmVmVmVmVmVmVmVmVmVmVmVmVmVmVmVmVmVmVmVm",
"nmnmnmnmnmnmnmnmnmnmnmnmnmnmnmnmnmnmnmnmnmnmnmnmnmnmnmnmnmnmnmnmnmnmnmnmnmnmnmnmnmnmnmnmnmnmnmnmnmnmnmnmnmnmnmnmnmnmnmnmnmnmnmnm",
"SnSnSnSnSnSnSnSnSnSnSnSnSnSnSnSnSnSnSnSnSnSnSnSnSnSnSnSnSnSnSnSnSnSnSnSnSnSnSnSnSnSnSnSnSnSnSnSnSnSnSnSnSnSnSnSnSnSnSnSnSnSnSnSn",
"bSbSbSbSbSbSbSbSbSbSbSbSbSbSbSbSbSbSbSbSbSbSbSbSbSbSbSbSbSbSbSbSbSbSbSbSbSbSbSbSbSbSbSbSbSbSbSbSbSbSbSbSbSbSbSbSbSbSbSbSbSbSbSbS",
"SZSZSZSZSZSZSZSZSZSZSZSZSZSZSZSZSZSZSZSZSZSZSZSZSZSZSZSZSZSZSZSZSZSZSZSZSZSZSZSZSZSZSZSZSZSZSZSZSZSZSZSZSZSZSZSZSZSZSZSZSZSZSZSZ",
"CSCSCSCSCSCSCSCSCSCSCSCSCSCSCSCSCSCSCSCSCSCSCSCSCSCSCSCSCSCSCSCSCSCSCSCSCSCSCSCSCSCSCSCSCSCSCSCSCSCSCSCSCSCSCSCSCSCSCSCSCSCSCSCS",
"FCFCFCFCFCFCFCFCFCFCFCFCFCFCFCFCFCFCFCFCFCFCFCFCFCFCFCFCFCFCFCFCFCFCFCFCFCFCFCFCFCFCFCFCFCFCFCFCFCFCFCFCFCFCFCFCFCFCFCFCFCFCFCFC",
"CDCDCDCDCDCDCDCDCDCDCDCDCDCDCDCDCDCDCDCDCDCDCDCDCDCDCDCDCDCDCDCDCDCDCDCDCDCDCDCDCDCDCDCDCDCDCDCDCDCDCDCDCDCDCDCDCDCDCDCDCDCDCDCD",
"DADADADADADADADADADADADADADADADADADADADADADADADADADADADADADADADADADADADADADADADADADADADADADADADADADADADADADADADADADADADADADADADA",
"+D+D+D+D+D+D+D+D+D+D+D+D+D+D+D+D+D+D+D+D+D+D+D+D+D+D+D+D+D+D+D+D+D+D+D+D+D+D+D+D+D+D+D+D+D+D+D+D+D+D+D+D+D+D+D+D+D+D+D+D+D+D+D+D",
"~A~A~A~A~A~A~A~A~A~A~A~A~A~A~A~A~A~A~A~A~A~A~A~A~A~A~A~A~A~A~A~A~A~A~A~A~A~A~A~A~A~A~A~A~A~A~A~A~A~A~A~A~A~A~A~A~A~A~A~A~A~A~A~A",
"+~+~+~+~+~+~+~+~+~+~+~+~+~+~+~+~+~+~+~+~+~+~+~+~+~+~+~+~+~+~+~+~+~+~+~+~+~+~+~+~+~+~+~+~+~+~+~+~+~+~+~+~+~+~+~+~+~+~+~+~+~+~+~+~",
"~J~J~J~J~J~J~J~J~J~J~J~J~J~J~J~J~J~J~J~J~J~J~J~J~J~J~J~J~J~J~J~J~J~J~J~J~J~J~J~J~J~J~J~J~J~J~J~J~J~J~J~J~J~J~J~J~J~J~J~J~J~J~J~J",
"JJJJJJJJJJJJJJJJJJJJJJJJJJJJJJJJJJJJJJJJJJJJJJJJJJJJJJJJJJJJJJJJJJJJJJJJJJJJJJJJJJJJJJJJJJJJJJJJJJJJJJJJJJJJJJJJJJJJJJJJJJJJJJJJ",
"PJPJPJPJPJPJPJPJPJPJPJPJPJPJPJPJPJPJPJPJPJPJPJPJPJPJPJPJPJPJPJPJPJPJPJPJPJPJPJPJPJPJPJPJPJPJPJPJPJPJPJPJPJPJPJPJPJPJPJPJPJPJPJPJ",
"HLHLHLHLHLHLHLHLHLHLHLHLHLHLHLHLHLHLHLHLHLHLHLHLHLHLHLHLHLHLHLHLHLHLHLHLHLHLHLHLHLHLHLHLHLHLHLHLHLHLHLHLHLHLHLHLHLHLHLHLHLHLHLHL",
"PKPKPKPKPKPKPKPKPKPKPKPKPKPKPKPKPKPKPKPKPKPKPKPKPKPKPKPKPKPKPKPKPKPKPKPKPKPKPKPKPKPKPKPKPKPKPKPKPKPKPKPKPKPKPKPKPKPKPKPKPKPKPKPK",
"KLKLKLKLKLKLKLKLKLKLKLKLKLKLKLKLKLKLKLKLKLKLKLKLKLKLKLKLKLKLKLKLKLKLKLKLKLKLKLKLKLKLKLKLKLKLKLKLKLKLKLKLKLKLKLKLKLKLKLKLKLKLKLKL",
"EKEKEKEKEKEKEKEKEKEKEKEKEKEKEKEKEKEKEKEKEKEKEKEKEKEKEKEKEKEKEKEKEKEKEKEKEKEKEKEKEKEKEKEKEKEKEKEKEKEKEKEKEKEKEKEKEKEKEKEKEKEKEKEK",
"KKKKKKKKKKKKKKKKKKKKKKKKKKKKKKKKKKKKKKKKKKKKKKKKKKKKKKKKKKKKKKKKKKKKKKKKKKKKKKKKKKKKKKKKKKKKKKKKKKKKKKKKKKKKKKKKKKKKKKKKKKKKKKKK",
"RKRKRKRKRKRKRKRKRKRKRKRKRKRKRKRKRKRKRKRKRKRKRKRKRKRKRKRKRKRKRKRKRKRKRKRKRKRKRKRKRKRKRKRKRKRKRKRKRKRKRKRKRKRKRKRKRKRKRKRKRKRKRKRK",
"GTGTGTGTGTGTGTGTGTGTGTGTGTGTGTGTGTGTGTGTGTGTGTGTGTGTGTGTGTGTGTGTGTGTGTGTGTGTGTGTGTGTGTGTGTGTGTGTGTGTGTGTGTGTGTGTGTGTGTGTGTGTGTGT",
"RIRIRIRIRIRIRIRIRIRIRIRIRIRIRIRIRIRIRIRIRIRIRIRIRIRIRIRIRIRIRIRIRIRIRIRIRIRIRIRIRIRIRIRIRIRIRIRIRIRIRIRIRIRIRIRIRIRIRIRIRIRIRIRI",
"IIIIIIIIIIIIIIIIIIIIIIIIIIIIIIIIIIIIIIIIIIIIIIIIIIIIIIIIIIIIIIIIIIIIIIIIIIIIIIIIIIIIIIIIIIIIIIIIIIIIIIIIIIIIIIIIIIIIIIIIIIIIIIII",
"WIWIWIWIWIWIWIWIWIWIWIWIWIWIWIWIWIWIWIWIWIWIWIWIWIWIWIWIWIWIWIWIWIWIWIWIWIWIWIWIWIWIWIWIWIWIWIWIWIWIWIWIWIWIWIWIWIWIWIWIWIWIWIWI",
"IYIYIYIYIYIYIYIYIYIYIYIYIYIYIYIYIYIYIYIYIYIYIYIYIYIYIYIYIYIYIYIYIYIYIYIYIYIYIYIYIYIYIYIYIYIYIYIYIYIYIYIYIYIYIYIYIYIYIYIYIYIYIYIY",
"YYYYYYYYYYYYYYYYYYYYYYYYYYYYYYYYYYYYYYYYYYYYYYYYYYYYYYYYYYYYYYYYYYYYYYYYYYYYYYYYYYYYYYYYYYYYYYYYYYYYYYYYYYYYYYYYYYYYYYYYYYYYYYYY",
"UYUYUYUYUYUYUYUYUYUYUYUYUYUYUYUYUYUYUYUYUYUYUYUYUYUYUYUYUYUYUYUYUYUYUYUYUYUYUYUYUYUYUYUYUYUYUYUYUYUYUYUYUYUYUYUYUYUYUYUYUYUYUYUY",
"!U!U!U!U!U!U!U!U!U!U!U!U!U!U!U!U!U!U!U!U!U!U!U!U!U!U!U!U!U!U!U!U!U!U!U!U!U!U!U!U!U!U!U!U!U!U!U!U!U!U!U!U!U!U!U!U!U!U!U!U!U!U!U!U",
"UQUQUQUQUQUQUQUQUQUQUQUQUQUQUQUQUQUQUQUQUQUQUQUQUQUQUQUQUQUQUQUQUQUQUQUQUQUQUQUQUQUQUQUQUQUQUQUQUQUQUQUQUQUQUQUQUQUQUQUQUQUQUQUQ",
"QQQQQQQQQQQQQQQQQQQQQQQQQQQQQQQQQQQQQQQQQQQQQQQQQQQQQQQQQQQQQQQQQQQQQQQQQQQQQQQQQQQQQQQQQQQQQQQQQQQQQQQQQQQQQQQQQQQQQQQQQQQQQQQQ"
};
