/* XPM */
static char *result[] = {
/* columns rows colors chars-per-pixel */
"64 64 7 1 ",
"  c #63A642",
". c #62A543",
"X c #589E4D",
"o c #579D4E",
"O c #61A444",
"+ c #599F4C",
"@ c white",
/* pixels */
"                               .Xooooooooooooooooooooooooooooooo",
"                               .Xooooooooooooooooooooooooooooooo",
"                               .Xooooooooooooooooooooooooooooooo",
"                               .Xooooooooooooooooooooooooooooooo",
"                               .Xooooooooooooooooooooooooooooooo",
"                               .Xooooooooooooooooooooooooooooooo",
"                               .Xooooooooooooooooooooooooooooooo",
"                               .Xooooooooooooooooooooooooooooooo",
"                               .Xooooooooooooooooooooooooooooooo",
"                               .Xooooooooooooooooooooooooooooooo",
"                               .Xooooooooooooooooooooooooooooooo",
"                               .Xooooooooooooooooooooooooooooooo",
"                               .Xooooooooooooooooooooooooooooooo",
"                               .Xooooooooooooooooooooooooooooooo",
"                               .Xooooooooooooooooooooooooooooooo",
"                               .Xooooooooooooooooooooooooooooooo",
"                               .Xooooooooooooooooooooooooooooooo",
"                               .Xooooooooooooooooooooooooooooooo",
"                               .Xooooooooooooooooooooooooooooooo",
"                               .Xooooooooooooooooooooooooooooooo",
"                               .Xooooooooooooooooooooooooooooooo",
"                               .Xooooooooooooooooooooooooooooooo",
"                               .Xooooooooooooooooooooooooooooooo",
"                               .Xooooooooooooooooooooooooooooooo",
"                               .Xooooooooooooooooooooooooooooooo",
"                               .Xooooooooooooooooooooooooooooooo",
"                               .Xooooooooooooooooooooooooooooooo",
"                               .Xooooooooooooooooooooooooooooooo",
"                               .Xooooooooooooooooooooooooooooooo",
"                               .Xooooooooooooooooooooooooooooooo",
"                               .Xooooooooooooooooooooooooooooooo",
"...............................O+XXXXXXXXXXXXXXXXXXXXXXXXXXXXXXX",
"XXXXXXXXXXXXXXXXXXXXXXXXXXXXXXX+O...............................",
"oooooooooooooooooooooooooooooooX.                               ",
"oooooooooooooooooooooooooooooooX.                               ",
"oooooooooooooooooooooooooooooooX.                               ",
"oooooooooooooooooooooooooooooooX.                               ",
"oooooooooooooooooooooooooooooooX.                               ",
"oooooooooooooooooooooooooooooooX.                               ",
"oooooooooooooooooooooooooooooooX.                               ",
"oooooooooooooooooooooooooooooooX.                               ",
"oooooooooooooooooooooooooooooooX.                               ",
"oooooooooooooooooooooooooooooooX.                               ",
"oooooooooooooooooooooooooooooooX.                               ",
"oooooooooooooooooooooooooooooooX.                               ",
"oooooooooooooooooooooooooooooooX.                               ",
"oooooooooooooooooooooooooooooooX.                               ",
"oooooooooooooooooooooooooooooooX.                               ",
"oooooooooooooooooooooooooooooooX.                               ",
"oooooooooooooooooooooooooooooooX.                               ",
"oooooooooooooooooooooooooooooooX.                               ",
"oooooooooooooooooooooooooooooooX.                               ",
"oooooooooooooooooooooooooooooooX.                               ",
"oooooooooooooooooooooooooooooooX.                               ",
"oooooooooooooooooooooooooooooooX.                               ",
"oooooooooooooooooooooooooooooooX.                               ",
"oooooooooooooooooooooooooooooooX.                               ",
"oooooooooooooooooooooooooooooooX.                               ",
"oooooooooooooooooooooooooooooooX.                               ",
"oooooooooooooooooooooooooooooooX.                               ",
"oooooooooooooooooooooooooooooooX.                               ",
"oooooooooooooooooooooooooooooooX.                               ",
"oooooooooooooooooooooooooooooooX.                               ",
"oooooooooooooooooooooooooooooooX.                               "
};
