/* XPM */
static char *result[] = {
/* columns rows colors chars-per-pixel */
"64 64 80 1 ",
"  c #0E400F",
". c #0E4110",
"X c #104A12",
"o c #125314",
"O c #145B16",
"+ c #156017",
"@ c #166418",
"# c #1B651D",
"$ c #176919",
"% c #1B6F1D",
"& c #1B721D",
"* c #1C7D1F",
"= c #1F6620",
"- c #1F6F21",
"; c #1E7121",
": c #246525",
"> c #246B25",
", c #2A622A",
"< c #2B6B2B",
"1 c #237124",
"2 c #267927",
"3 c #2B732C",
"4 c #2D7E2E",
"5 c #316C31",
"6 c #3C683A",
"7 c #3C753B",
"8 c #426A3F",
"9 c #417A3F",
"0 c #436C41",
"q c #4A6E47",
"w c #4F6E4C",
"e c #506E4C",
"r c #477644",
"t c #467944",
"y c #497946",
"u c #4F754B",
"i c #4D7A49",
"p c #527B4E",
"a c #567151",
"s c #587053",
"d c #547C51",
"f c #5A7C56",
"g c #5D7258",
"h c #65745F",
"j c #637F5D",
"k c #6C7665",
"l c #677860",
"z c #6F7B68",
"x c #73796C",
"c c #7A7D72",
"v c #827D79",
"b c #2F8030",
"n c #40803F",
"m c #51844E",
"M c #6C8165",
"N c #6F8168",
"B c #75846D",
"V c #778470",
"C c #7C8474",
"Z c #85847C",
"A c #88807E",
"S c #868A7D",
"D c #8C8382",
"F c #8D8983",
"G c #918286",
"H c #938988",
"J c #998B8D",
"K c #A28B95",
"L c #A78A9B",
"P c #A88F9B",
"I c #B38EA5",
"U c #B391A5",
"Y c #B693A8",
"T c #BC93AD",
"R c #BF94B0",
"E c #C494B4",
"W c #CA96BA",
"Q c #D098BF",
"! c #D298C1",
"~ c None",
/* pixels */
"~~~~~~**********bb$bbbbbb$bb$bbbb$bbbbbbb$bbbbbbbbbbbbbb$b~~~~~~",
"~~~~************bbbbbbbbbbbbbbbbbbbb$bbbbbbb$bbbb$bb$bbbbbbb~~~~",
"~~~*********b***bbbb$bb$bbbbbb$bbbbbbbb$bbbbbbbbbbbbbbb$bb$bb~~~",
"~~******b*******b$bbbbbbbb$bbbbbbb$bbbbbbb$bbbb$bbb$bbbbbbbb*b~~",
"~~******bb******bb$bbbb$bbbbbbbbbbbbbbbbb$bbbbbbbbbbb$bb******~~",
"~*******b$b*****bbbbbbbb$bbbb$bbb$bb$bbbbbbbbbb$b$bbbbbb***b***~",
"~*******bb******bbbbb$bbbbb$bbbbbbbbbb$bbbbb$bbbbbbbbbbb*******~",
"~*******$b******$bbbbbbbbbbbbbb$bbb$bbbbbb$bbbbbbb$bbb$b*******~",
"~bbbbbb$bbb$bbbbbbbbbbbbbbbbbbbb$bbbbbbbbbbbbb$bbbbb***********~",
"~bb$bbbbbbbbbb$bbbb$bb$bb$bbb$bbbb$bbbb$bbb$bbbbbb$b******b****~",
"~bbbb$bbb$bb$bbb$bbbbbbbbbbbbbbbbbbb$bbbb$bbbbbbbbbb***********~",
"~bbbbbbbbbbbbbbbbbbb$bbb$bb$bbb$$bbbbbbbbbbbb$bb$bb$b**********~",
"~***bbbbbb$bbbbbbbbbbbbbbbbbbbbbbbb$bb$bbbbbbbbbbbbb***********~",
"~***bb$bbbbbbbb$bbb$bb$bbb$b$bbbbbbbbbbbbb$bbb$bbb$b***********~",
"~***bbbbbbbb$bbb$bbbbbbbbbbbbbb$b$bbb$bbbbbbbbbbbbbbb*******b**~",
"~**b$bbbb$bbbbbbbbbb$bbb$bbbbbbbbbbbbbbb$bbb$bbb$bbb***********~",
"~*******bb$bbbbbbbbbb$bbbbbbb$bbb$bbb$bbbbbbbbbbbbbbbbbbbbbbbb$~",
"~*******bbbbbbbb$bbbbbbb$bbbbbbbbbbbbbbb$bbb$bbbbbb$bb$bbbb$bbb~",
"~******bbbbb$bb$bbb$bbbbbb$bbbbbbbbbbb$bbbb$bbb$$bbbbbbbbbbbbbb~",
"~*******b$bbbbbbbbbbbb$bbbbbbb$bbb$bbbbbbbbbbbbbbbbb$bbb$bbbbbb~",
"~*******bb$bbbb$$bbbbbbb$bbb$bbbbbbb$bbbbbbbbb$bbb$bbbbb****$bb~",
"~*******bbbbbbbbbbbbb$bbbbbbbbbb$bbbbbbbb$bbbbbbbbbbbb$b****bb*~",
"~*******bbbbb$bbbb$bbbbbbb$bbbb$bb$bbb$bbbbbbbbbbbbbbbbb*****b&~",
"~&b*****$bbbbbbbbbbbbbb$bbbbbbbbbbbbbbbbbbb$b$bbb$bbb$bbb*****&~",
"~%**bbbbbbbbbbbbbbbbbbbbbbbbb$bb$bbbbbb$bbb$bbbbbbbb*b****bbb$$~",
"~&%*$bbb$bbbbb$b$bbbbbb$bbb$bbbbbb$bbbbbbbbbbbb$bbb$******bbb+$~",
"~%%&bbbb$bb$bbbbbbb$$bbbbbbbbbbbbbbbbbbbb$bbbbbb$bbb*****bb$$@$~",
"~%%%$*$;bbbb$bbb$bbbbbbbb$bbb$bbb$bbbb$bbbbbb$bbbbbb$*b;*$$+@$$~",
"~%%%%%%&$$$$b$b$$b$b$$b$$$b$$b$b$b$b$b$$b$$$$$$b$b$$&&%&&%$@@@@~",
"~%%%%&&%$bb$b$$$$$$bb$$$b$$$$$$b$$$$$$b$$$b$bb$$$$$b%%%%%&$@@@@~",
"~%&%%%%%$$$$$b$$$$$$$$$$$b$$b$b$b$b$b$$$b$$$$$$$b$$$%&%%%-$@@@@~",
"~%%%%%%%$bb$$$$bb$b$$b$b$$$b$$$$b$$$$$b$$$b$b$b$$$$b%%%%%%$@@@@~",
"~-%%%%%%&%%%%%%&%%%%%%&%%%%%%%%%$$b$$$*bp1%%%%%;%%%%%%%%%%$@@@@~",
"~%%%%&%%%%%&%%%%&%%%%%%%%&%%%%%%b$$$$bSEWF1%%%%%%%%%%%%%%%%@@@@~",
"~%%&%%%%%%$&%%%%%%%%%%%%%%%%%&&%$b$$*mWQQWp%%%%%&%%%%%%&%%%@@@@~",
"~$%%%%%%%%&&$%%&%%%&%%%&%%%%%%%%$$bbbmWQQEp&%%%%%%%%%%%%%%$@@#O~",
"~%%&%%%%%-yNM9&&%%-%%%&*;&$*3;&%%%***bCEWA>%&%%%;31%%%&%%%%@@@+~",
"~#%%%%%&1VE!!TM$%%%&%&&;;b7VPHi-%&**&$-8q-%%&%%tSPSp-%%%%%@@@@+~",
"~=%%%%%%dE!QQ!T7%%%%%&&&;bUQ!!Rf%&*&%%&$$&&%&%pE!!!Ed%%%%%$@@@+~",
"~$%%%%&&C!QQQ!!M$%%%%%&&2S!Q!!!P2&*%%&%%%%%%%1KQQQQ!P3%%%%%@+@+~",
"~%%%%-%%Z!!!!W!z&&%%%%%%3L!QQQ!T3&&&%%%%%%%%%3EQQQQ!E3%%%%@@@@O~",
"~$%%&%&$fW!W!!Rr$%%%%%%&-H!QQQ!I3%%%%;%%%%%%&3IQQQQ!Y3%&%-%@@@+~",
"~-%%%%&%>vW!!Wx-&%%&%%%%%uE!!!Wz%%%%%%%%%%%%%%ZQ!Q!!Z-%%%%%@@@+~",
"~$%%%%%%%:scxe=%&%%%%%%%-$aLTIk>%%&%%%%%%%;%%$<AEQEv<%%%&%@@@@+~",
"~#%%%%%%%%@@@@%%%%%%&-%%%%$:,:#%%%%%%%%%%&%%%%%#6g8=%%%%%%%@+@+~",
"~$%%%&%%%%%%%%%%%%&%%%%%%%%%$%%%%%%%%133%%%%%%&&@@$%%%%%%%@@@@+~",
"~%%&%%%%%%%%&%&%%%13%&%%%-%&%%%&%%%%9JEUM;&%%%*&%%&%%%%-%%$@@@+~",
"~$%%%%*;*&&%%%%%%dJPC3%%%%%%%%%%%%%1JQWQWp%&%%*&&%%%%%&%%%%+@@+~",
"~%&%%&**&&%%%%%&tR!!!S;&&&%%%%%%%%%3T!QQ!B$&&&**&&%%&&&%%%$@@@O~",
"~#&%&&*&&&&%%%%%B!!Q!Yb*&&%%%%-%%&%3I!QQQM&%&$&b**&**&%%%%%@@@+~",
"~%%%&*;%%%%%%&%$x!W!!Y4**&%%%&%%-%%%lE!!K5%%$&%&****&&%&%%#@@@+~",
"~#%%&&*%%%%%%%%&7Y!!!c;**&%%%%%%%%%&=exk5%&&$&%&&&*&%%%%&%$@@@+~",
"~$%%%&&%%%%%%%%%$0vGl>&&*&%%%%%%%%&%%$@@$%%%%&%%&&%%%%-%%%@@@@O~",
"~#%%%%%%%%%%%%%%-$#=@%%&*%%%%&&%%%%%%%%%%%%%%%%%%%%%%%%%%&@@@@+~",
"~%%%%%%&%;&%%%&%%%%%%%%&&%%%%%%%&%%%&%%%%%%%%%%&%%%&%%%%%$@@@+O~",
"~#&%%%%%%%%%%%%%%%%%%%%%%%%%%%%%%%%%%%%%%%&%%%%%%%%%%&%%%@@@@@O~",
"~X&%%%%%%%%%%%%%%%%%%%%%%%%&%%%&%%%%&%%%%&%%%%%%%%%%%%%%@@@+@+ ~",
"~~@%%%%%%%%&%%%%%&%%%%%&%%%%%%%%%%%%%%%%%%%%%%%&%%%&%%@@@@@@@O~~",
"~~~O@@@@@@@@@@@@@@@@@@@@@@@@@@@@@@@@@@@@$@@@@@@@@@@@+@@@@@@@O~~~",
"~~~~o+@@@@@@@@@@@@@@@@@@@@@@@@@@@@@@@@@@@@@@+@@@@@@@@@@@@++o~~~~",
"~~~~~~ XXXXXXXXXXXXXXXXXXXXXXXXXXXXXXXXXXXXXXXXXXXXXXXXXX ~~~~~~",
"~~~~~~~~~~~~~~~~~~~~~~~~~~~~~~~~~~~~~~~~~~~~~~~~~~~~~~~~~~~~~~~~",
"~~~~~~~~~~~~~~~~~~~~~~~~~~~~~~~~~~~~~~~~~~~~~~~~~~~~~~~~~~~~~~~~",
"~~~~~~~~~~~~~~~~~~~~~~~~~~~~~~~~~~~~~~~~~~~~~~~~~~~~~~~~~~~~~~~~"
};
